# MagicaVoxel @ Ephtracy

# group
g road

# material
mtllib road.mtl
usemtl palette

# normals
vn -1 0 0
vn 1 0 0
vn 0 0 1
vn 0 0 -1
vn 0 -1 0
vn 0 1 0

# texcoords
vt 0.0136719 0.5
vt 0.962891 0.5
vt 0.974609 0.5
vt 0.978516 0.5
vt 0.986328 0.5

# verts
v -63 0 50
v -63 0 -50
v -63 1 27
v -63 1 2
v -63 1 1
v -63 1 -1
v -63 1 -2
v -63 1 -27
v -63 2 27
v -63 2 2
v -63 2 1
v -63 2 -1
v -63 2 -2
v -63 2 -27
v -63 3 50
v -63 3 30
v -63 3 29
v -63 3 -29
v -63 3 -30
v -63 3 -50
v -63 4 50
v -63 4 30
v -63 4 29
v -63 4 27
v -63 4 -27
v -63 4 -29
v -63 4 -30
v -63 4 -50
v -52 3 50
v -52 3 30
v -52 3 -30
v -52 3 -50
v -52 4 50
v -52 4 30
v -52 4 -30
v -52 4 -50
v -32 3 50
v -32 3 30
v -32 3 -30
v -32 3 -50
v -32 4 50
v -32 4 30
v -32 4 -30
v -32 4 -50
v -12 2 50
v -12 2 29
v -12 2 -29
v -12 2 -50
v -12 3 50
v -12 3 30
v -12 3 29
v -12 3 -29
v -12 3 -30
v -12 3 -50
v -12 4 50
v -12 4 30
v -12 4 -30
v -12 4 -50
v 7 2 30
v 7 2 29
v 7 2 -29
v 7 2 -30
v 7 3 30
v 7 3 29
v 7 3 -29
v 7 3 -30
v 8 3 50
v 8 3 30
v 8 3 -30
v 8 3 -50
v 8 4 50
v 8 4 30
v 8 4 -30
v 8 4 -50
v 27 2 30
v 27 2 29
v 27 2 -29
v 27 2 -30
v 27 3 30
v 27 3 29
v 27 3 -29
v 27 3 -30
v 28 3 50
v 28 3 30
v 28 3 -30
v 28 3 -50
v 28 4 50
v 28 4 30
v 28 4 -30
v 28 4 -50
v 47 2 30
v 47 2 29
v 47 2 -29
v 47 2 -30
v 47 3 30
v 47 3 29
v 47 3 -29
v 47 3 -30
v 48 3 50
v 48 3 30
v 48 3 -30
v 48 3 -50
v 48 4 50
v 48 4 30
v 48 4 -30
v 48 4 -50
v -53 3 50
v -53 3 30
v -53 3 -30
v -53 3 -50
v -53 4 50
v -53 4 30
v -53 4 -30
v -53 4 -50
v -33 3 50
v -33 3 30
v -33 3 -30
v -33 3 -50
v -33 4 50
v -33 4 30
v -33 4 -30
v -33 4 -50
v -14 2 30
v -14 2 29
v -14 2 -29
v -14 2 -30
v -14 3 30
v -14 3 29
v -14 3 -29
v -14 3 -30
v -13 2 50
v -13 2 30
v -13 2 -30
v -13 2 -50
v -13 3 50
v -13 3 30
v -13 3 -30
v -13 3 -50
v -13 4 50
v -13 4 30
v -13 4 -30
v -13 4 -50
v 6 2 30
v 6 2 29
v 6 2 -29
v 6 2 -30
v 6 3 30
v 6 3 29
v 6 3 -29
v 6 3 -30
v 7 3 50
v 7 3 30
v 7 3 -30
v 7 3 -50
v 7 4 50
v 7 4 30
v 7 4 -30
v 7 4 -50
v 26 2 30
v 26 2 29
v 26 2 -29
v 26 2 -30
v 26 3 30
v 26 3 29
v 26 3 -29
v 26 3 -30
v 27 3 50
v 27 3 30
v 27 3 -30
v 27 3 -50
v 27 4 50
v 27 4 30
v 27 4 -30
v 27 4 -50
v 46 2 30
v 46 2 29
v 46 2 -29
v 46 2 -30
v 46 3 30
v 46 3 29
v 46 3 -29
v 46 3 -30
v 47 3 50
v 47 3 30
v 47 3 -30
v 47 3 -50
v 47 4 50
v 47 4 30
v 47 4 -30
v 47 4 -50
v 62 1 30
v 62 1 29
v 62 1 -29
v 62 1 -30
v 62 3 30
v 62 3 29
v 62 3 -29
v 62 3 -30
v 63 0 50
v 63 0 -50
v 63 1 30
v 63 1 29
v 63 1 27
v 63 1 2
v 63 1 1
v 63 1 -1
v 63 1 -2
v 63 1 -27
v 63 1 -29
v 63 1 -30
v 63 2 28
v 63 2 27
v 63 2 2
v 63 2 1
v 63 2 -1
v 63 2 -2
v 63 2 -27
v 63 2 -28
v 63 3 50
v 63 3 30
v 63 3 29
v 63 3 28
v 63 3 -28
v 63 3 -29
v 63 3 -30
v 63 3 -50
v 63 4 50
v 63 4 30
v 63 4 29
v 63 4 27
v 63 4 -27
v 63 4 -29
v 63 4 -30
v 63 4 -50
v -63 0 50
v -63 3 50
v -63 4 50
v -62 0 50
v -62 3 50
v -53 2 50
v -53 3 50
v -53 4 50
v -52 2 50
v -52 3 50
v -52 4 50
v -33 2 50
v -33 3 50
v -33 4 50
v -32 2 50
v -32 3 50
v -32 4 50
v -13 2 50
v -13 3 50
v -13 4 50
v -12 2 50
v -12 3 50
v -12 4 50
v 7 1 50
v 7 2 50
v 7 3 50
v 7 4 50
v 8 1 50
v 8 2 50
v 8 3 50
v 8 4 50
v 27 2 50
v 27 3 50
v 27 4 50
v 28 2 50
v 28 3 50
v 28 4 50
v 47 2 50
v 47 3 50
v 47 4 50
v 48 2 50
v 48 3 50
v 48 4 50
v 63 0 50
v 63 3 50
v 63 4 50
v -63 3 29
v -63 4 29
v -62 3 29
v -53 3 29
v -52 3 29
v -33 3 29
v -32 3 29
v -14 2 29
v -14 3 29
v -13 2 29
v -13 3 29
v -12 2 29
v -12 3 29
v 6 2 29
v 6 3 29
v 7 2 29
v 7 3 29
v 8 3 29
v 26 2 29
v 26 3 29
v 27 2 29
v 27 3 29
v 28 3 29
v 46 2 29
v 46 3 29
v 47 2 29
v 47 3 29
v 48 3 29
v 62 1 29
v 62 3 29
v 63 1 29
v 63 3 29
v 63 4 29
v -63 2 -27
v -63 4 -27
v 63 2 -27
v 63 4 -27
v -63 3 -30
v -63 4 -30
v -62 3 -30
v -53 3 -30
v -53 4 -30
v -52 3 -30
v -52 4 -30
v -33 3 -30
v -33 4 -30
v -32 3 -30
v -32 4 -30
v -14 2 -30
v -14 3 -30
v -13 2 -30
v -13 3 -30
v -13 4 -30
v -12 3 -30
v -12 4 -30
v 6 2 -30
v 6 3 -30
v 7 2 -30
v 7 3 -30
v 7 4 -30
v 8 3 -30
v 8 4 -30
v 26 2 -30
v 26 3 -30
v 27 2 -30
v 27 3 -30
v 27 4 -30
v 28 3 -30
v 28 4 -30
v 46 2 -30
v 46 3 -30
v 47 2 -30
v 47 3 -30
v 47 4 -30
v 48 3 -30
v 48 4 -30
v 62 1 -30
v 62 3 -30
v 63 1 -30
v 63 3 -30
v 63 4 -30
v -63 3 30
v -63 4 30
v -62 3 30
v -53 3 30
v -53 4 30
v -52 3 30
v -52 4 30
v -33 3 30
v -33 4 30
v -32 3 30
v -32 4 30
v -14 2 30
v -14 3 30
v -13 2 30
v -13 3 30
v -13 4 30
v -12 3 30
v -12 4 30
v 6 2 30
v 6 3 30
v 7 2 30
v 7 3 30
v 7 4 30
v 8 3 30
v 8 4 30
v 26 2 30
v 26 3 30
v 27 2 30
v 27 3 30
v 27 4 30
v 28 3 30
v 28 4 30
v 46 2 30
v 46 3 30
v 47 2 30
v 47 3 30
v 47 4 30
v 48 3 30
v 48 4 30
v 62 1 30
v 62 3 30
v 63 1 30
v 63 3 30
v 63 4 30
v -63 2 27
v -63 4 27
v 63 2 27
v 63 4 27
v -63 3 -29
v -63 4 -29
v -62 3 -29
v -53 3 -29
v -52 3 -29
v -33 3 -29
v -32 3 -29
v -14 2 -29
v -14 3 -29
v -13 2 -29
v -13 3 -29
v -12 2 -29
v -12 3 -29
v 6 2 -29
v 6 3 -29
v 7 2 -29
v 7 3 -29
v 8 3 -29
v 26 2 -29
v 26 3 -29
v 27 2 -29
v 27 3 -29
v 28 3 -29
v 46 2 -29
v 46 3 -29
v 47 2 -29
v 47 3 -29
v 48 3 -29
v 62 1 -29
v 62 3 -29
v 63 1 -29
v 63 3 -29
v 63 4 -29
v -63 0 -50
v -63 3 -50
v -63 4 -50
v -62 0 -50
v -62 3 -50
v -53 2 -50
v -53 3 -50
v -53 4 -50
v -52 2 -50
v -52 3 -50
v -52 4 -50
v -33 2 -50
v -33 3 -50
v -33 4 -50
v -32 2 -50
v -32 3 -50
v -32 4 -50
v -13 2 -50
v -13 3 -50
v -13 4 -50
v -12 2 -50
v -12 3 -50
v -12 4 -50
v 7 1 -50
v 7 2 -50
v 7 3 -50
v 7 4 -50
v 8 1 -50
v 8 2 -50
v 8 3 -50
v 8 4 -50
v 27 2 -50
v 27 3 -50
v 27 4 -50
v 28 2 -50
v 28 3 -50
v 28 4 -50
v 47 2 -50
v 47 3 -50
v 47 4 -50
v 48 2 -50
v 48 3 -50
v 48 4 -50
v 63 0 -50
v 63 3 -50
v 63 4 -50
v -63 0 50
v -62 0 50
v 63 0 50
v -63 0 -50
v -62 0 -50
v 63 0 -50
v 62 1 30
v 63 1 30
v 62 1 29
v 63 1 29
v 62 1 -29
v 63 1 -29
v 62 1 -30
v 63 1 -30
v -13 2 50
v -12 2 50
v -14 2 30
v -13 2 30
v 6 2 30
v 7 2 30
v 26 2 30
v 27 2 30
v 46 2 30
v 47 2 30
v -14 2 29
v -13 2 29
v -12 2 29
v 6 2 29
v 7 2 29
v 26 2 29
v 27 2 29
v 46 2 29
v 47 2 29
v -63 2 27
v 63 2 27
v -63 2 2
v 63 2 2
v -63 2 1
v 63 2 1
v -63 2 -1
v 63 2 -1
v -63 2 -2
v 63 2 -2
v -63 2 -27
v 63 2 -27
v -14 2 -29
v -13 2 -29
v -12 2 -29
v 6 2 -29
v 7 2 -29
v 26 2 -29
v 27 2 -29
v 46 2 -29
v 47 2 -29
v -14 2 -30
v -13 2 -30
v 6 2 -30
v 7 2 -30
v 26 2 -30
v 27 2 -30
v 46 2 -30
v 47 2 -30
v -13 2 -50
v -12 2 -50
v -53 3 50
v -52 3 50
v -33 3 50
v -32 3 50
v 7 3 50
v 8 3 50
v 27 3 50
v 28 3 50
v 47 3 50
v 48 3 50
v -63 3 30
v -62 3 30
v -53 3 30
v -52 3 30
v -33 3 30
v -32 3 30
v -14 3 30
v -12 3 30
v 6 3 30
v 7 3 30
v 8 3 30
v 26 3 30
v 27 3 30
v 28 3 30
v 46 3 30
v 47 3 30
v 48 3 30
v 62 3 30
v -63 3 29
v -62 3 29
v -53 3 29
v -52 3 29
v -33 3 29
v -32 3 29
v -14 3 29
v -12 3 29
v 6 3 29
v 7 3 29
v 8 3 29
v 26 3 29
v 27 3 29
v 28 3 29
v 46 3 29
v 47 3 29
v 48 3 29
v 62 3 29
v -63 3 -29
v -62 3 -29
v -53 3 -29
v -52 3 -29
v -33 3 -29
v -32 3 -29
v -14 3 -29
v -12 3 -29
v 6 3 -29
v 7 3 -29
v 8 3 -29
v 26 3 -29
v 27 3 -29
v 28 3 -29
v 46 3 -29
v 47 3 -29
v 48 3 -29
v 62 3 -29
v -63 3 -30
v -62 3 -30
v -53 3 -30
v -52 3 -30
v -33 3 -30
v -32 3 -30
v -14 3 -30
v -12 3 -30
v 6 3 -30
v 7 3 -30
v 8 3 -30
v 26 3 -30
v 27 3 -30
v 28 3 -30
v 46 3 -30
v 47 3 -30
v 48 3 -30
v 62 3 -30
v -53 3 -50
v -52 3 -50
v -33 3 -50
v -32 3 -50
v 7 3 -50
v 8 3 -50
v 27 3 -50
v 28 3 -50
v 47 3 -50
v 48 3 -50
v -63 4 50
v -53 4 50
v -52 4 50
v -33 4 50
v -32 4 50
v -13 4 50
v -12 4 50
v 7 4 50
v 8 4 50
v 27 4 50
v 28 4 50
v 47 4 50
v 48 4 50
v 63 4 50
v -63 4 30
v -53 4 30
v -52 4 30
v -33 4 30
v -32 4 30
v -13 4 30
v -12 4 30
v 7 4 30
v 8 4 30
v 27 4 30
v 28 4 30
v 47 4 30
v 48 4 30
v 63 4 30
v -63 4 29
v 63 4 29
v -63 4 27
v 63 4 27
v -63 4 -27
v 63 4 -27
v -63 4 -29
v 63 4 -29
v -63 4 -30
v -53 4 -30
v -52 4 -30
v -33 4 -30
v -32 4 -30
v -13 4 -30
v -12 4 -30
v 7 4 -30
v 8 4 -30
v 27 4 -30
v 28 4 -30
v 47 4 -30
v 48 4 -30
v 63 4 -30
v -63 4 -50
v -53 4 -50
v -52 4 -50
v -33 4 -50
v -32 4 -50
v -13 4 -50
v -12 4 -50
v 7 4 -50
v 8 4 -50
v 27 4 -50
v 28 4 -50
v 47 4 -50
v 48 4 -50
v 63 4 -50

# faces
f 3/3/1 2/3/1 1/3/1
f 4/3/1 2/3/1 3/3/1
f 5/3/1 2/3/1 4/3/1
f 6/3/1 2/3/1 5/3/1
f 7/3/1 2/3/1 6/3/1
f 8/3/1 2/3/1 7/3/1
f 9/3/1 3/3/1 1/3/1
f 9/5/1 4/5/1 3/5/1
f 10/1/1 5/1/1 4/1/1
f 10/5/1 4/5/1 9/5/1
f 11/5/1 6/5/1 5/5/1
f 11/1/1 5/1/1 10/1/1
f 12/1/1 7/1/1 6/1/1
f 12/5/1 6/5/1 11/5/1
f 13/5/1 8/5/1 7/5/1
f 13/1/1 7/1/1 12/1/1
f 14/3/1 2/3/1 8/3/1
f 14/5/1 8/5/1 13/5/1
f 15/3/1 9/3/1 1/3/1
f 16/3/1 9/3/1 15/3/1
f 17/3/1 9/3/1 16/3/1
f 18/3/1 2/3/1 14/3/1
f 19/3/1 2/3/1 18/3/1
f 20/3/1 2/3/1 19/3/1
f 21/2/1 16/2/1 15/2/1
f 22/2/1 16/2/1 21/2/1
f 23/3/1 9/3/1 17/3/1
f 24/3/1 9/3/1 23/3/1
f 25/3/1 18/3/1 14/3/1
f 26/3/1 18/3/1 25/3/1
f 27/2/1 20/2/1 19/2/1
f 28/2/1 20/2/1 27/2/1
f 33/2/1 30/2/1 29/2/1
f 34/2/1 30/2/1 33/2/1
f 35/2/1 32/2/1 31/2/1
f 36/2/1 32/2/1 35/2/1
f 41/2/1 38/2/1 37/2/1
f 42/2/1 38/2/1 41/2/1
f 43/2/1 40/2/1 39/2/1
f 44/2/1 40/2/1 43/2/1
f 49/4/1 46/4/1 45/4/1
f 50/4/1 46/4/1 49/4/1
f 51/4/1 46/4/1 50/4/1
f 52/4/1 48/4/1 47/4/1
f 53/4/1 48/4/1 52/4/1
f 54/4/1 48/4/1 53/4/1
f 55/2/1 50/2/1 49/2/1
f 56/2/1 50/2/1 55/2/1
f 57/2/1 54/2/1 53/2/1
f 58/2/1 54/2/1 57/2/1
f 63/2/1 60/2/1 59/2/1
f 64/2/1 60/2/1 63/2/1
f 65/2/1 62/2/1 61/2/1
f 66/2/1 62/2/1 65/2/1
f 71/2/1 68/2/1 67/2/1
f 72/2/1 68/2/1 71/2/1
f 73/2/1 70/2/1 69/2/1
f 74/2/1 70/2/1 73/2/1
f 79/2/1 76/2/1 75/2/1
f 80/2/1 76/2/1 79/2/1
f 81/2/1 78/2/1 77/2/1
f 82/2/1 78/2/1 81/2/1
f 87/2/1 84/2/1 83/2/1
f 88/2/1 84/2/1 87/2/1
f 89/2/1 86/2/1 85/2/1
f 90/2/1 86/2/1 89/2/1
f 95/2/1 92/2/1 91/2/1
f 96/2/1 92/2/1 95/2/1
f 97/2/1 94/2/1 93/2/1
f 98/2/1 94/2/1 97/2/1
f 103/2/1 100/2/1 99/2/1
f 104/2/1 100/2/1 103/2/1
f 105/2/1 102/2/1 101/2/1
f 106/2/1 102/2/1 105/2/1
f 107/2/2 108/2/2 111/2/2
f 111/2/2 108/2/2 112/2/2
f 109/2/2 110/2/2 113/2/2
f 113/2/2 110/2/2 114/2/2
f 115/2/2 116/2/2 119/2/2
f 119/2/2 116/2/2 120/2/2
f 117/2/2 118/2/2 121/2/2
f 121/2/2 118/2/2 122/2/2
f 123/4/2 124/4/2 127/4/2
f 127/4/2 124/4/2 128/4/2
f 125/4/2 126/4/2 129/4/2
f 129/4/2 126/4/2 130/4/2
f 131/4/2 132/4/2 135/4/2
f 135/4/2 132/4/2 136/4/2
f 133/4/2 134/4/2 137/4/2
f 137/4/2 134/4/2 138/4/2
f 135/2/2 136/2/2 139/2/2
f 139/2/2 136/2/2 140/2/2
f 137/2/2 138/2/2 141/2/2
f 141/2/2 138/2/2 142/2/2
f 143/4/2 144/4/2 147/4/2
f 147/4/2 144/4/2 148/4/2
f 145/4/2 146/4/2 149/4/2
f 149/4/2 146/4/2 150/4/2
f 151/2/2 152/2/2 155/2/2
f 155/2/2 152/2/2 156/2/2
f 153/2/2 154/2/2 157/2/2
f 157/2/2 154/2/2 158/2/2
f 159/4/2 160/4/2 163/4/2
f 163/4/2 160/4/2 164/4/2
f 161/4/2 162/4/2 165/4/2
f 165/4/2 162/4/2 166/4/2
f 167/2/2 168/2/2 171/2/2
f 171/2/2 168/2/2 172/2/2
f 169/2/2 170/2/2 173/2/2
f 173/2/2 170/2/2 174/2/2
f 175/4/2 176/4/2 179/4/2
f 179/4/2 176/4/2 180/4/2
f 177/4/2 178/4/2 181/4/2
f 181/4/2 178/4/2 182/4/2
f 183/2/2 184/2/2 187/2/2
f 187/2/2 184/2/2 188/2/2
f 185/2/2 186/2/2 189/2/2
f 189/2/2 186/2/2 190/2/2
f 191/4/2 192/4/2 195/4/2
f 195/4/2 192/4/2 196/4/2
f 193/4/2 194/4/2 197/4/2
f 197/4/2 194/4/2 198/4/2
f 199/4/2 200/4/2 201/4/2
f 201/4/2 200/4/2 202/4/2
f 202/4/2 200/4/2 203/4/2
f 203/4/2 200/4/2 204/4/2
f 204/4/2 200/4/2 205/4/2
f 205/4/2 200/4/2 206/4/2
f 206/4/2 200/4/2 207/4/2
f 207/4/2 200/4/2 208/4/2
f 208/4/2 200/4/2 209/4/2
f 209/4/2 200/4/2 210/4/2
f 202/4/2 203/4/2 211/4/2
f 203/5/2 204/5/2 212/5/2
f 211/4/2 203/4/2 212/4/2
f 204/1/2 205/1/2 213/1/2
f 212/5/2 204/5/2 213/5/2
f 205/5/2 206/5/2 214/5/2
f 213/1/2 205/1/2 214/1/2
f 206/1/2 207/1/2 215/1/2
f 214/5/2 206/5/2 215/5/2
f 207/5/2 208/5/2 216/5/2
f 215/1/2 207/1/2 216/1/2
f 208/4/2 209/4/2 217/4/2
f 216/5/2 208/5/2 217/5/2
f 217/4/2 209/4/2 218/4/2
f 199/4/2 201/4/2 219/4/2
f 219/4/2 201/4/2 220/4/2
f 202/4/2 211/4/2 221/4/2
f 211/3/2 212/3/2 222/3/2
f 221/4/2 211/4/2 222/4/2
f 218/4/2 209/4/2 223/4/2
f 217/3/2 218/3/2 223/3/2
f 223/4/2 209/4/2 224/4/2
f 210/4/2 200/4/2 225/4/2
f 225/4/2 200/4/2 226/4/2
f 219/2/2 220/2/2 227/2/2
f 227/2/2 220/2/2 228/2/2
f 221/3/2 222/3/2 229/3/2
f 222/3/2 212/3/2 230/3/2
f 229/3/2 222/3/2 230/3/2
f 223/3/2 224/3/2 231/3/2
f 217/3/2 223/3/2 231/3/2
f 231/3/2 224/3/2 232/3/2
f 225/2/2 226/2/2 233/2/2
f 233/2/2 226/2/2 234/2/2
f 238/3/3 236/3/3 235/3/3
f 239/2/3 237/2/3 236/2/3
f 239/3/3 236/3/3 238/3/3
f 240/4/3 239/4/3 238/4/3
f 241/2/3 237/2/3 239/2/3
f 241/4/3 239/4/3 240/4/3
f 242/2/3 237/2/3 241/2/3
f 243/4/3 240/4/3 238/4/3
f 243/2/3 241/2/3 240/2/3
f 244/2/3 241/2/3 243/2/3
f 246/4/3 243/4/3 238/4/3
f 246/4/3 244/4/3 243/4/3
f 247/2/3 245/2/3 244/2/3
f 247/4/3 244/4/3 246/4/3
f 248/2/3 245/2/3 247/2/3
f 249/4/3 246/4/3 238/4/3
f 249/2/3 247/2/3 246/2/3
f 250/2/3 247/2/3 249/2/3
f 252/4/3 249/4/3 238/4/3
f 252/4/3 250/4/3 249/4/3
f 253/2/3 251/2/3 250/2/3
f 253/4/3 250/4/3 252/4/3
f 254/2/3 251/2/3 253/2/3
f 255/4/3 252/4/3 238/4/3
f 258/4/3 255/4/3 238/4/3
f 258/4/3 256/4/3 255/4/3
f 259/4/3 256/4/3 258/4/3
f 260/2/3 257/2/3 256/2/3
f 260/4/3 256/4/3 259/4/3
f 261/2/3 257/2/3 260/2/3
f 262/5/3 259/5/3 258/5/3
f 262/4/3 258/4/3 238/4/3
f 263/2/3 260/2/3 259/2/3
f 263/5/3 259/5/3 262/5/3
f 264/2/3 260/2/3 263/2/3
f 266/4/3 263/4/3 262/4/3
f 266/4/3 264/4/3 263/4/3
f 267/2/3 265/2/3 264/2/3
f 267/4/3 264/4/3 266/4/3
f 268/2/3 265/2/3 267/2/3
f 269/4/3 266/4/3 262/4/3
f 269/2/3 267/2/3 266/2/3
f 270/2/3 267/2/3 269/2/3
f 272/4/3 269/4/3 262/4/3
f 272/4/3 270/4/3 269/4/3
f 273/2/3 271/2/3 270/2/3
f 273/4/3 270/4/3 272/4/3
f 274/2/3 271/2/3 273/2/3
f 275/4/3 272/4/3 262/4/3
f 275/2/3 273/2/3 272/2/3
f 276/2/3 273/2/3 275/2/3
f 278/4/3 262/4/3 238/4/3
f 278/4/3 275/4/3 262/4/3
f 278/4/3 276/4/3 275/4/3
f 279/2/3 277/2/3 276/2/3
f 279/4/3 276/4/3 278/4/3
f 280/2/3 277/2/3 279/2/3
f 283/3/3 282/3/3 281/3/3
f 284/3/3 282/3/3 283/3/3
f 285/3/3 282/3/3 284/3/3
f 286/3/3 282/3/3 285/3/3
f 287/3/3 282/3/3 286/3/3
f 289/3/3 282/3/3 287/3/3
f 290/4/3 289/4/3 288/4/3
f 291/3/3 282/3/3 289/3/3
f 291/4/3 289/4/3 290/4/3
f 292/2/3 291/2/3 290/2/3
f 293/3/3 282/3/3 291/3/3
f 293/2/3 291/2/3 292/2/3
f 295/3/3 282/3/3 293/3/3
f 296/4/3 295/4/3 294/4/3
f 297/3/3 282/3/3 295/3/3
f 297/4/3 295/4/3 296/4/3
f 298/3/3 282/3/3 297/3/3
f 300/3/3 282/3/3 298/3/3
f 301/4/3 300/4/3 299/4/3
f 302/3/3 282/3/3 300/3/3
f 302/4/3 300/4/3 301/4/3
f 303/3/3 282/3/3 302/3/3
f 305/3/3 282/3/3 303/3/3
f 306/4/3 305/4/3 304/4/3
f 307/3/3 282/3/3 305/3/3
f 307/4/3 305/4/3 306/4/3
f 308/3/3 282/3/3 307/3/3
f 310/3/3 282/3/3 308/3/3
f 311/4/3 310/4/3 309/4/3
f 312/3/3 282/3/3 310/3/3
f 312/4/3 310/4/3 311/4/3
f 313/3/3 282/3/3 312/3/3
f 316/3/3 315/3/3 314/3/3
f 317/3/3 315/3/3 316/3/3
f 320/2/3 319/2/3 318/2/3
f 321/2/3 319/2/3 320/2/3
f 322/2/3 319/2/3 321/2/3
f 325/2/3 324/2/3 323/2/3
f 326/2/3 324/2/3 325/2/3
f 330/2/3 328/2/3 327/2/3
f 331/4/3 330/4/3 329/4/3
f 332/2/3 328/2/3 330/2/3
f 332/4/3 330/4/3 331/4/3
f 333/2/3 328/2/3 332/2/3
f 337/2/3 335/2/3 334/2/3
f 338/4/3 337/4/3 336/4/3
f 339/2/3 335/2/3 337/2/3
f 339/4/3 337/4/3 338/4/3
f 340/2/3 335/2/3 339/2/3
f 344/2/3 342/2/3 341/2/3
f 345/4/3 344/4/3 343/4/3
f 346/2/3 342/2/3 344/2/3
f 346/4/3 344/4/3 345/4/3
f 347/2/3 342/2/3 346/2/3
f 351/2/3 349/2/3 348/2/3
f 352/4/3 351/4/3 350/4/3
f 353/2/3 349/2/3 351/2/3
f 353/4/3 351/4/3 352/4/3
f 354/2/3 349/2/3 353/2/3
f 358/2/3 356/2/3 355/2/3
f 359/4/3 358/4/3 357/4/3
f 360/2/3 356/2/3 358/2/3
f 360/4/3 358/4/3 359/4/3
f 361/2/3 356/2/3 360/2/3
f 362/2/4 363/2/4 364/2/4
f 364/2/4 363/2/4 365/2/4
f 365/2/4 363/2/4 366/2/4
f 367/2/4 368/2/4 369/2/4
f 369/2/4 368/2/4 370/2/4
f 371/2/4 372/2/4 374/2/4
f 373/4/4 374/4/4 375/4/4
f 374/2/4 372/2/4 376/2/4
f 375/4/4 374/4/4 376/4/4
f 376/2/4 372/2/4 377/2/4
f 378/2/4 379/2/4 381/2/4
f 380/4/4 381/4/4 382/4/4
f 381/2/4 379/2/4 383/2/4
f 382/4/4 381/4/4 383/4/4
f 383/2/4 379/2/4 384/2/4
f 385/2/4 386/2/4 388/2/4
f 387/4/4 388/4/4 389/4/4
f 388/2/4 386/2/4 390/2/4
f 389/4/4 388/4/4 390/4/4
f 390/2/4 386/2/4 391/2/4
f 392/2/4 393/2/4 395/2/4
f 394/4/4 395/4/4 396/4/4
f 395/2/4 393/2/4 397/2/4
f 396/4/4 395/4/4 397/4/4
f 397/2/4 393/2/4 398/2/4
f 399/2/4 400/2/4 402/2/4
f 401/4/4 402/4/4 403/4/4
f 402/2/4 400/2/4 404/2/4
f 403/4/4 402/4/4 404/4/4
f 404/2/4 400/2/4 405/2/4
f 406/3/4 407/3/4 408/3/4
f 408/3/4 407/3/4 409/3/4
f 410/3/4 411/3/4 412/3/4
f 412/3/4 411/3/4 413/3/4
f 413/3/4 411/3/4 414/3/4
f 414/3/4 411/3/4 415/3/4
f 415/3/4 411/3/4 416/3/4
f 416/3/4 411/3/4 418/3/4
f 417/4/4 418/4/4 419/4/4
f 418/3/4 411/3/4 420/3/4
f 419/4/4 418/4/4 420/4/4
f 419/2/4 420/2/4 421/2/4
f 420/3/4 411/3/4 422/3/4
f 421/2/4 420/2/4 422/2/4
f 422/3/4 411/3/4 424/3/4
f 423/4/4 424/4/4 425/4/4
f 424/3/4 411/3/4 426/3/4
f 425/4/4 424/4/4 426/4/4
f 426/3/4 411/3/4 427/3/4
f 427/3/4 411/3/4 429/3/4
f 428/4/4 429/4/4 430/4/4
f 429/3/4 411/3/4 431/3/4
f 430/4/4 429/4/4 431/4/4
f 431/3/4 411/3/4 432/3/4
f 432/3/4 411/3/4 434/3/4
f 433/4/4 434/4/4 435/4/4
f 434/3/4 411/3/4 436/3/4
f 435/4/4 434/4/4 436/4/4
f 436/3/4 411/3/4 437/3/4
f 437/3/4 411/3/4 439/3/4
f 438/4/4 439/4/4 440/4/4
f 439/3/4 411/3/4 441/3/4
f 440/4/4 439/4/4 441/4/4
f 441/3/4 411/3/4 442/3/4
f 443/3/4 444/3/4 446/3/4
f 444/2/4 445/2/4 447/2/4
f 446/3/4 444/3/4 447/3/4
f 446/4/4 447/4/4 448/4/4
f 447/2/4 445/2/4 449/2/4
f 448/4/4 447/4/4 449/4/4
f 449/2/4 445/2/4 450/2/4
f 446/4/4 448/4/4 451/4/4
f 448/2/4 449/2/4 451/2/4
f 451/2/4 449/2/4 452/2/4
f 446/4/4 451/4/4 454/4/4
f 451/4/4 452/4/4 454/4/4
f 452/2/4 453/2/4 455/2/4
f 454/4/4 452/4/4 455/4/4
f 455/2/4 453/2/4 456/2/4
f 446/4/4 454/4/4 457/4/4
f 454/2/4 455/2/4 457/2/4
f 457/2/4 455/2/4 458/2/4
f 446/4/4 457/4/4 460/4/4
f 457/4/4 458/4/4 460/4/4
f 458/2/4 459/2/4 461/2/4
f 460/4/4 458/4/4 461/4/4
f 461/2/4 459/2/4 462/2/4
f 446/4/4 460/4/4 463/4/4
f 446/4/4 463/4/4 466/4/4
f 463/4/4 464/4/4 466/4/4
f 466/4/4 464/4/4 467/4/4
f 464/2/4 465/2/4 468/2/4
f 467/4/4 464/4/4 468/4/4
f 468/2/4 465/2/4 469/2/4
f 466/5/4 467/5/4 470/5/4
f 446/4/4 466/4/4 470/4/4
f 467/2/4 468/2/4 471/2/4
f 470/5/4 467/5/4 471/5/4
f 471/2/4 468/2/4 472/2/4
f 470/4/4 471/4/4 474/4/4
f 471/4/4 472/4/4 474/4/4
f 472/2/4 473/2/4 475/2/4
f 474/4/4 472/4/4 475/4/4
f 475/2/4 473/2/4 476/2/4
f 470/4/4 474/4/4 477/4/4
f 474/2/4 475/2/4 477/2/4
f 477/2/4 475/2/4 478/2/4
f 470/4/4 477/4/4 480/4/4
f 477/4/4 478/4/4 480/4/4
f 478/2/4 479/2/4 481/2/4
f 480/4/4 478/4/4 481/4/4
f 481/2/4 479/2/4 482/2/4
f 470/4/4 480/4/4 483/4/4
f 480/2/4 481/2/4 483/2/4
f 483/2/4 481/2/4 484/2/4
f 446/4/4 470/4/4 486/4/4
f 470/4/4 483/4/4 486/4/4
f 483/4/4 484/4/4 486/4/4
f 484/2/4 485/2/4 487/2/4
f 486/4/4 484/4/4 487/4/4
f 487/2/4 485/2/4 488/2/4
f 492/3/5 490/3/5 489/3/5
f 493/4/5 491/4/5 490/4/5
f 493/3/5 490/3/5 492/3/5
f 494/4/5 491/4/5 493/4/5
f 495/4/6 496/4/6 497/4/6
f 497/4/6 496/4/6 498/4/6
f 499/4/6 500/4/6 501/4/6
f 501/4/6 500/4/6 502/4/6
f 503/4/6 504/4/6 506/4/6
f 505/4/6 506/4/6 513/4/6
f 506/4/6 504/4/6 514/4/6
f 513/4/6 506/4/6 514/4/6
f 514/4/6 504/4/6 515/4/6
f 507/4/6 508/4/6 516/4/6
f 516/4/6 508/4/6 517/4/6
f 509/4/6 510/4/6 518/4/6
f 518/4/6 510/4/6 519/4/6
f 511/4/6 512/4/6 520/4/6
f 520/4/6 512/4/6 521/4/6
f 522/5/6 523/5/6 524/5/6
f 524/5/6 523/5/6 525/5/6
f 524/1/6 525/1/6 526/1/6
f 526/1/6 525/1/6 527/1/6
f 526/5/6 527/5/6 528/5/6
f 528/5/6 527/5/6 529/5/6
f 528/1/6 529/1/6 530/1/6
f 530/1/6 529/1/6 531/1/6
f 530/5/6 531/5/6 532/5/6
f 532/5/6 531/5/6 533/5/6
f 534/4/6 535/4/6 543/4/6
f 535/4/6 536/4/6 543/4/6
f 543/4/6 536/4/6 544/4/6
f 537/4/6 538/4/6 545/4/6
f 545/4/6 538/4/6 546/4/6
f 539/4/6 540/4/6 547/4/6
f 547/4/6 540/4/6 548/4/6
f 541/4/6 542/4/6 549/4/6
f 549/4/6 542/4/6 550/4/6
f 544/4/6 536/4/6 551/4/6
f 551/4/6 536/4/6 552/4/6
f 553/2/6 554/2/6 565/2/6
f 565/2/6 554/2/6 566/2/6
f 555/2/6 556/2/6 567/2/6
f 567/2/6 556/2/6 568/2/6
f 557/2/6 558/2/6 572/2/6
f 572/2/6 558/2/6 573/2/6
f 559/2/6 560/2/6 575/2/6
f 575/2/6 560/2/6 576/2/6
f 561/2/6 562/2/6 578/2/6
f 578/2/6 562/2/6 579/2/6
f 563/3/6 564/3/6 581/3/6
f 564/4/6 565/4/6 582/4/6
f 581/3/6 564/3/6 582/3/6
f 565/2/6 566/2/6 583/2/6
f 582/4/6 565/4/6 583/4/6
f 566/4/6 567/4/6 584/4/6
f 583/2/6 566/2/6 584/2/6
f 567/2/6 568/2/6 585/2/6
f 584/4/6 567/4/6 585/4/6
f 568/4/6 569/4/6 586/4/6
f 585/2/6 568/2/6 586/2/6
f 586/4/6 569/4/6 587/4/6
f 570/4/6 571/4/6 588/4/6
f 588/4/6 571/4/6 589/4/6
f 572/2/6 573/2/6 590/2/6
f 573/4/6 574/4/6 591/4/6
f 590/2/6 573/2/6 591/2/6
f 591/4/6 574/4/6 592/4/6
f 575/2/6 576/2/6 593/2/6
f 576/4/6 577/4/6 594/4/6
f 593/2/6 576/2/6 594/2/6
f 594/4/6 577/4/6 595/4/6
f 578/2/6 579/2/6 596/2/6
f 579/4/6 580/4/6 597/4/6
f 596/2/6 579/2/6 597/2/6
f 597/4/6 580/4/6 598/4/6
f 599/3/6 600/3/6 617/3/6
f 600/4/6 601/4/6 618/4/6
f 617/3/6 600/3/6 618/3/6
f 601/2/6 602/2/6 619/2/6
f 618/4/6 601/4/6 619/4/6
f 602/4/6 603/4/6 620/4/6
f 619/2/6 602/2/6 620/2/6
f 603/2/6 604/2/6 621/2/6
f 620/4/6 603/4/6 621/4/6
f 604/4/6 605/4/6 622/4/6
f 621/2/6 604/2/6 622/2/6
f 622/4/6 605/4/6 623/4/6
f 606/4/6 607/4/6 624/4/6
f 624/4/6 607/4/6 625/4/6
f 608/2/6 609/2/6 626/2/6
f 609/4/6 610/4/6 627/4/6
f 626/2/6 609/2/6 627/2/6
f 627/4/6 610/4/6 628/4/6
f 611/2/6 612/2/6 629/2/6
f 612/4/6 613/4/6 630/4/6
f 629/2/6 612/2/6 630/2/6
f 630/4/6 613/4/6 631/4/6
f 614/2/6 615/2/6 632/2/6
f 615/4/6 616/4/6 633/4/6
f 632/2/6 615/2/6 633/2/6
f 633/4/6 616/4/6 634/4/6
f 619/2/6 620/2/6 635/2/6
f 635/2/6 620/2/6 636/2/6
f 621/2/6 622/2/6 637/2/6
f 637/2/6 622/2/6 638/2/6
f 626/2/6 627/2/6 639/2/6
f 639/2/6 627/2/6 640/2/6
f 629/2/6 630/2/6 641/2/6
f 641/2/6 630/2/6 642/2/6
f 632/2/6 633/2/6 643/2/6
f 643/2/6 633/2/6 644/2/6
f 645/2/6 646/2/6 659/2/6
f 659/2/6 646/2/6 660/2/6
f 647/2/6 648/2/6 661/2/6
f 661/2/6 648/2/6 662/2/6
f 649/2/6 650/2/6 663/2/6
f 663/2/6 650/2/6 664/2/6
f 651/2/6 652/2/6 665/2/6
f 665/2/6 652/2/6 666/2/6
f 653/2/6 654/2/6 667/2/6
f 667/2/6 654/2/6 668/2/6
f 655/2/6 656/2/6 669/2/6
f 669/2/6 656/2/6 670/2/6
f 657/2/6 658/2/6 671/2/6
f 671/2/6 658/2/6 672/2/6
f 673/3/6 674/3/6 675/3/6
f 675/3/6 674/3/6 676/3/6
f 677/3/6 678/3/6 679/3/6
f 679/3/6 678/3/6 680/3/6
f 681/2/6 682/2/6 695/2/6
f 695/2/6 682/2/6 696/2/6
f 683/2/6 684/2/6 697/2/6
f 697/2/6 684/2/6 698/2/6
f 685/2/6 686/2/6 699/2/6
f 699/2/6 686/2/6 700/2/6
f 687/2/6 688/2/6 701/2/6
f 701/2/6 688/2/6 702/2/6
f 689/2/6 690/2/6 703/2/6
f 703/2/6 690/2/6 704/2/6
f 691/2/6 692/2/6 705/2/6
f 705/2/6 692/2/6 706/2/6
f 693/2/6 694/2/6 707/2/6
f 707/2/6 694/2/6 708/2/6
